<?xml version="1.0" standalone="no"?>
<!DOCTYPE svg PUBLIC "-//W3C//DTD SVG 1.1//EN" "http://www.w3.org/Graphics/SVG/1.1/DTD/svg11.dtd" >
<svg xmlns="http://www.w3.org/2000/svg">
<metadata></metadata>
<defs>
<font id="exo_2semi_bold_condensed" horiz-adv-x="937" >
<font-face units-per-em="2048" ascent="1638" descent="-410" />
<missing-glyph horiz-adv-x="360" />
<glyph unicode="&#xfb01;" horiz-adv-x="1107" d="M33 823v170l145 11v139q0 162 62 246t204 84q130 0 220 -19v-176h-132q-60 0 -84 -37t-24 -129v-108h577v-1004h-245v823h-332v-823h-246v823h-145zM752 1260v110q0 72 69 72h113q67 0 67 -72v-110q0 -72 -67 -72h-113q-36 0 -52.5 17.5t-16.5 54.5z" />
<glyph unicode="&#xfb02;" horiz-adv-x="1200" d="M31 823v170l145 11v139q0 162 62 246t204 84q402 0 572 -33v-1153q0 -115 86 -115h61l29 -160q-28 -16 -88 -25.5t-105 -9.5q-107 0 -169 66.5t-62 183.5v1053h-238q-60 1 -83 -36t-23 -132v-108h205v-181h-205v-823h-246v823h-145z" />
<glyph horiz-adv-x="0" />
<glyph horiz-adv-x="682" />
<glyph unicode=" "  horiz-adv-x="360" />
<glyph unicode="&#x09;" horiz-adv-x="360" />
<glyph unicode="&#xa0;" horiz-adv-x="360" />
<glyph unicode="!" horiz-adv-x="495" d="M125 840v583h244v-583l-25 -398h-194zM133 88v105q0 50 18.5 69t67.5 19h57q49 0 67.5 -19t18.5 -69v-105q0 -50 -18.5 -69t-67.5 -19h-57q-49 0 -67.5 19t-18.5 69z" />
<glyph unicode="&#x22;" horiz-adv-x="626" d="M86 1413h186l-16 -446h-156zM354 1413h187l-17 -446h-153z" />
<glyph unicode="#" horiz-adv-x="1175" d="M51 418l29 151h186l47 322h-192l29 151h184l53 371h186l-51 -371h230l51 371h188l-53 -371h186l-28 -151h-178l-48 -322h185l-29 -151h-176l-59 -418h-187l60 418h-230l-59 -418h-189l60 418h-195zM455 569h229l45 322h-229z" />
<glyph unicode="$" horiz-adv-x="960" d="M74 1059q0 81 10 140.5t32.5 101.5t53 69t79.5 42t103 20.5t131 5.5h2l15 194h121l-15 -198q143 -10 252 -43l-16 -183q-68 2 -252 6l-29 -395l96 -37q133 -52 185.5 -150t52.5 -261q0 -120 -21 -195.5t-72.5 -120.5t-126.5 -62t-194 -18l-16 -229h-121l18 234 q-138 7 -276 40l14 195l279 -8l31 403l-101 39q-127 50 -181 148.5t-54 261.5zM328 1055q0 -61 13.5 -97.5t35.5 -54t67 -37.5l25 348q-43 -1 -66 -5.5t-42 -21t-26 -48t-7 -84.5zM500 205q83 3 111 36.5t28 131.5q0 48 -5.5 78.5t-20.5 51t-31.5 31.5t-46.5 25l-9 4z" />
<glyph unicode="%" horiz-adv-x="1505" d="M55 1020q0 231 63.5 325.5t221.5 94.5t221.5 -94.5t63.5 -325.5q0 -230 -64 -325t-221 -95t-221 95t-64 325zM238 1020q0 -160 21 -217.5t79 -57.5q61 0 81.5 57t20.5 218q0 160 -20.5 217t-81.5 57q-58 0 -79 -57.5t-21 -216.5zM328 0l686 1413h160l-687 -1413h-159z M881 399q0 231 62.5 325.5t219.5 94.5q159 0 222 -94.5t63 -325.5q0 -233 -63 -327.5t-222 -94.5q-157 0 -219.5 94.5t-62.5 327.5zM1063 399q0 -162 20 -218t78 -56q62 0 84.5 57t22.5 217t-22.5 215.5t-84.5 55.5q-40 0 -60.5 -23.5t-29 -80.5t-8.5 -167z" />
<glyph unicode="&#x26;" horiz-adv-x="1267" d="M86 358q0 170 52 264t171 107v8q-101 12 -145.5 92.5t-44.5 237.5q0 82 10 141t35 100.5t57 66t86.5 38.5t112 18.5t143.5 4.5q153 0 268 -23l-28 -186q-86 6 -246 6q-73 0 -108.5 -14t-52.5 -57.5t-17 -131.5q0 -122 31 -164.5t118 -42.5h248l17 234h208v-234h179 l2 -186h-181v-332q0 -66 17 -91.5t63 -25.5h101l26 -176q-40 -16 -103 -25.5t-108 -9.5q-84 0 -139.5 41t-75.5 117q-66 -86 -147 -122t-207 -36q-185 0 -263.5 85t-78.5 296zM354 406q0 -125 30.5 -169t117.5 -44q163 0 268 114v330h-254q-94 0 -128 -48t-34 -183z" />
<glyph unicode="'" horiz-adv-x="358" d="M86 1413h186l-16 -446h-156z" />
<glyph unicode="(" horiz-adv-x="606" d="M63 639q0 403 116.5 640.5t365.5 338.5l28 -111q-143 -88 -206.5 -302t-63.5 -564q0 -344 64 -559t206 -309l-28 -111q-249 103 -365.5 340t-116.5 637z" />
<glyph unicode=")" horiz-adv-x="606" d="M31 -227q144 94 208 309t64 559q0 350 -64 564t-208 302l30 111q249 -101 365.5 -338.5t116.5 -640.5q0 -400 -116.5 -637t-365.5 -340z" />
<glyph unicode="*" horiz-adv-x="747" d="M59 1110l43 133l193 -96v-62l-31 -38zM145 815l181 262l-21 338h135l-20 -336l178 -264l-109 -84l-116 250l-117 -248zM451 1085v62l192 96l43 -135l-205 -61z" />
<glyph unicode="+" horiz-adv-x="899" d="M70 524v181h286v352h185v-352h286v-181h-286v-350h-183v350h-288z" />
<glyph unicode="," horiz-adv-x="407" d="M82 78l2 115q3 49 22.5 68.5t65.5 19.5h64q49 0 66 -19t17 -69l3 -132q-3 -188 -86 -348l-109 31q24 115 27 256q-35 0 -53.5 20.5t-18.5 57.5z" />
<glyph unicode="-" horiz-adv-x="686" d="M96 432v176h496v-176h-496z" />
<glyph unicode="." horiz-adv-x="413" d="M84 88v105q0 50 18.5 69t69.5 19h70q50 0 69 -19.5t19 -68.5v-105q0 -50 -19 -69t-69 -19h-70q-51 0 -69.5 19t-18.5 69z" />
<glyph unicode="/" horiz-adv-x="909" d="M31 -141l651 1554h197l-652 -1554h-196z" />
<glyph unicode="0" horiz-adv-x="1042" d="M82 707q0 399 98 566t340 167q244 0 341 -166.5t97 -566.5t-97.5 -567t-340.5 -167q-242 0 -340 167t-98 567zM332 707q0 -202 17 -312t56.5 -158.5t112.5 -48.5q76 0 117 48.5t58.5 158.5t17.5 312q0 152 -9 248t-31.5 158.5t-59 87t-93.5 24.5q-73 0 -112.5 -48.5 t-56.5 -158t-17 -311.5z" />
<glyph unicode="1" horiz-adv-x="731" d="M39 1270l280 143h256v-1413h-256v1042q0 79 13 140l-262 -95z" />
<glyph unicode="2" horiz-adv-x="954" d="M78 0v154q0 60 35 106l274 408q104 141 154 244t49 186q-1 73 -35 94.5t-117 21.5q-162 0 -342 -24l-10 196q193 52 381 52q93 0 158 -13.5t118 -47t79 -97.5t26 -160q0 -134 -37 -237.5t-147 -249.5l-285 -404q69 13 172 13h330v-242h-803z" />
<glyph unicode="3" d="M70 10l10 201q213 -16 311 -16q118 0 162.5 48.5t44.5 180.5q0 115 -36 167.5t-136 51.5h-211v191h211q50 0 82 15.5t47 47t19.5 66t3.5 86.5q-1 59 -8.5 92t-29 51.5t-51 23.5t-83.5 5q-131 0 -304 -13l-12 195q182 37 359 37q200 0 286 -72t86 -256 q0 -101 -13.5 -170.5t-52 -120t-102.5 -65.5v-8q108 -22 151.5 -109t45.5 -246q3 -221 -86 -320.5t-303 -99.5q-163 0 -391 37z" />
<glyph unicode="4" horiz-adv-x="1056" d="M55 559l291 854h242l-266 -821q-12 -38 -3 -56t35 -18h264v393l41 230h197v-623h148v-172l-140 -24h-8v-322h-238v322h-432q-82 0 -122 74t-9 163z" />
<glyph unicode="5" horiz-adv-x="911" d="M63 23l25 206q177 -30 293 -30q122 0 164 52.5t45 178.5q1 41 -0.5 71.5t-9.5 55t-16 41t-27 30t-34 21t-47.5 14.5t-56 11t-69.5 10l-135 14q-38 3 -62 32.5t-24 72.5l30 610h670l-8 -211h-463l-12 -301l161 -20q198 -25 276.5 -132t78.5 -321q0 -453 -396 -453 q-174 0 -383 48z" />
<glyph unicode="6" horiz-adv-x="972" d="M84 690q0 138 10.5 245.5t29 186t50 134.5t67.5 91.5t88 55.5t105.5 27.5t124.5 7.5q161 0 270 -35l-12 -178q-86 4 -258 4q-64 0 -101.5 -14t-66 -57t-41 -120.5t-16.5 -206.5q50 55 106.5 77t139.5 22q185 0 255 -102t70 -355q0 -98 -9.5 -170t-35.5 -136.5t-69.5 -105 t-114.5 -63.5t-168 -23q-105 0 -175 21.5t-120.5 68.5t-77.5 133t-39 202t-12 290zM332 653q0 -79 0.5 -128t3.5 -102.5t8 -83t14 -60t21.5 -45t31.5 -27.5t43 -17t56 -4q42 0 70.5 12.5t45 33t25 59t11 77.5t2.5 103q0 147 -32.5 203.5t-123.5 56.5q-50 0 -88.5 -17 t-87.5 -61z" />
<glyph unicode="7" horiz-adv-x="870" d="M35 1413h684q62 0 90.5 -41.5t9.5 -105.5l-344 -1266h-252l287 1077q16 65 49 121h-512z" />
<glyph unicode="8" horiz-adv-x="1017" d="M86 352q0 83 9 145.5t30.5 114t60.5 81t95 36.5v8q-57 8 -95.5 53.5t-54.5 113.5t-16 157q0 102 17 169t61 115t120.5 69.5t194.5 21.5q120 0 197.5 -21t121 -69.5t60 -115t16.5 -169.5q0 -89 -16 -157t-54.5 -113.5t-95.5 -53.5v-8q107 -13 151 -110t44 -267 q0 -102 -18 -168t-65.5 -114.5t-130 -71t-210.5 -23.5q-124 -1 -206.5 21t-130 71t-66.5 116.5t-19 168.5zM326 408q0 -130 37 -176t149 -46q108 0 143 46t35 176q0 137 -35 183t-143 46q-113 -1 -149.5 -47.5t-36.5 -181.5zM344 1034q0 -122 34 -163.5t136 -41.5 q100 0 130 41t30 164q0 122 -32 164.5t-130 42.5q-100 0 -134 -43t-34 -164z" />
<glyph unicode="9" horiz-adv-x="970" d="M72 940q-2 261 89.5 379.5t309.5 118.5q89 0 152.5 -14t110.5 -49.5t75.5 -86.5t46 -135.5t23.5 -184.5t6 -245q0 -158 -10.5 -273.5t-36 -199.5t-60.5 -137t-91 -84t-120 -42.5t-155 -11.5q-172 0 -293 35l14 180q92 -4 277 -4q88 0 135 35.5t68.5 120t25.5 246.5 q-50 -59 -107 -82t-143 -23q-317 0 -317 457zM309 942q0 -137 33.5 -199.5t120.5 -62.5q50 0 88 18t90 64q0 78 -1 128t-3.5 102t-7.5 82.5t-14 60.5t-21 45t-30.5 28t-41 17t-53.5 4q-98 0 -129 -65.5t-31 -221.5z" />
<glyph unicode=":" horiz-adv-x="434" d="M86 90v103q0 51 18.5 69.5t69.5 18.5h70q50 0 69 -18.5t19 -69.5v-103q0 -51 -19 -70.5t-69 -19.5h-70q-51 0 -69.5 19.5t-18.5 70.5zM86 723v102q0 51 18.5 69.5t69.5 18.5h70q50 0 69 -18.5t19 -69.5v-102q0 -51 -19 -70.5t-69 -19.5h-70q-51 0 -69.5 19.5t-18.5 70.5z " />
<glyph unicode=";" horiz-adv-x="436" d="M96 78l2 115q3 49 22.5 68.5t65.5 19.5h64q49 0 66.5 -19t17.5 -69l2 -132q-3 -188 -86 -348l-109 31q24 115 27 256q-35 0 -53.5 20.5t-18.5 57.5zM98 723v102q0 51 18.5 69.5t69.5 18.5h70q50 0 69 -18.5t19 -69.5v-102q0 -51 -19 -70.5t-69 -19.5h-70 q-51 0 -69.5 19.5t-18.5 70.5z" />
<glyph unicode="&#x3c;" horiz-adv-x="860" d="M68 518v193l696 346v-195l-490 -248l490 -245v-195z" />
<glyph unicode="=" horiz-adv-x="962" d="M100 297v180h764v-180h-764zM100 731v180h764v-180h-764z" />
<glyph unicode="&#x3e;" horiz-adv-x="860" d="M96 174v195l488 245l-488 248v195l697 -346v-193z" />
<glyph unicode="?" horiz-adv-x="847" d="M51 1411q11 2 56 12t57 12.5t50.5 9t65.5 8t72 3.5t97 2q179 0 265.5 -77.5t86.5 -239.5q0 -83 -28.5 -153.5t-70 -125t-83.5 -110t-75 -135t-38 -175.5h-203q-3 102 19 189t56.5 146.5t69.5 110t61.5 103.5t29.5 103q6 80 -30 118.5t-120 38.5q-136 0 -330 -14zM289 88 v105q0 50 18.5 69t67.5 19h59q49 0 67.5 -19t18.5 -69v-105q0 -50 -18.5 -69t-67.5 -19h-59q-49 0 -67.5 19t-18.5 69z" />
<glyph unicode="@" horiz-adv-x="1247" d="M92 547q0 119 3 198.5t13 154t25 118.5t44.5 83.5t65 59t93 34t122 18.5t158.5 4h248q145 0 216 -74t71 -246v-623h-182l-21 146q-47 -67 -121 -116.5t-161 -49.5q-103 0 -169.5 66.5t-66.5 189.5v100q0 103 53 161t152 58h285v62q0 76 -22 102.5t-83 26.5h-199 q-45 0 -71.5 -0.5t-58 -5t-48.5 -10t-37 -19.5t-29 -30t-20 -44.5t-14.5 -59.5t-7.5 -79.5t-5 -100t-1 -124.5q0 -95 1.5 -157.5t11 -117.5t16 -85.5t32.5 -56.5t44 -36t66 -17.5t83 -8t110 -0.5h463v-177q-242 -22 -463 -22q-106 -1 -179.5 2.5t-139 18t-105.5 34t-74 59.5 t-51 85t-29 120.5t-15 156.5t-3 202zM655 553q0 -113 72 -113q48 0 102 28.5t91 82.5v139l-193 -8q-43 -3 -57.5 -23.5t-14.5 -72.5v-33z" />
<glyph unicode="A" horiz-adv-x="1075" d="M2 0l326 1346q9 32 33 49.5t57 17.5h239q33 0 57 -17.5t31 -49.5l328 -1346h-260l-84 399h-383l-84 -399h-260zM389 610h295l-100 488q-3 13 -9 38t-10 45.5t-6 37.5h-45q-3 -27 -22 -121z" />
<glyph unicode="B" horiz-adv-x="1052" d="M117 0v1413q159 17 428 17q115 0 188.5 -16.5t123 -59t69.5 -113t20 -180.5q0 -155 -46 -233.5t-150 -90.5v-8q126 -13 179.5 -107t53.5 -270q0 -109 -21 -180t-70 -113t-118.5 -58.5t-175.5 -16.5q-315 0 -481 16zM367 190h186q103 0 138.5 41.5t35.5 167.5 q0 140 -37.5 189t-142.5 51h-180v-449zM367 825h178q92 0 124.5 41.5t32.5 161.5q0 116 -35.5 155.5t-134.5 39.5h-165v-398z" />
<glyph unicode="C" horiz-adv-x="970" d="M78 707q0 205 25 342t83 225t147.5 126t223.5 38q117 0 189.5 -10t152.5 -35l-22 -195q-148 14 -320 14q-83 0 -128 -47t-64 -154t-19 -304t19 -304t64 -154.5t128 -47.5q219 0 344 20l21 -192q-80 -30 -161.5 -42t-203.5 -12q-178 0 -281.5 71.5t-150.5 229.5t-47 431z " />
<glyph unicode="D" horiz-adv-x="1124" d="M117 0v1413q249 19 442 19q183 0 286.5 -66.5t151 -223t47.5 -435.5t-47.5 -435.5t-151 -223t-286.5 -66.5q-206 0 -442 18zM371 199q57 -2 188 -2q85 0 131 47.5t66 156t20 306.5t-20 307t-66.5 157t-130.5 48q-38 0 -99.5 -1t-88.5 -1v-1018z" />
<glyph unicode="E" horiz-adv-x="954" d="M106 264v885q1 124 72 196t191 72q364 0 518 -16l-13 -197h-440q-40 0 -54.5 -26t-14.5 -93v-247h448v-197h-448v-315q0 -67 14.5 -93t54.5 -26h440l13 -195q-154 -16 -518 -16q-121 0 -191 71.5t-72 196.5z" />
<glyph unicode="F" horiz-adv-x="917" d="M113 0v1139q0 132 70.5 205t191.5 73q354 0 499 -18l-14 -195h-403q-52 0 -70 -26t-18 -93v-272h432v-199h-432v-614h-256z" />
<glyph unicode="G" horiz-adv-x="1062" d="M80 713q0 285 51 441.5t161 221t308 64.5q196 0 336 -47l-21 -191q-163 12 -305 12q-54 0 -88.5 -6t-66.5 -25.5t-50 -53.5t-32 -92.5t-19.5 -140t-5.5 -198.5q0 -194 15.5 -300.5t53 -154.5t105.5 -48q91 0 209 92v528h244v-815h-187l-22 133q-52 -65 -136.5 -112.5 t-193.5 -47.5q-188 0 -272 177.5t-84 562.5z" />
<glyph unicode="H" horiz-adv-x="1138" d="M117 0v1413h254v-555h397v555h254v-1413h-254v647h-397v-647h-254z" />
<glyph unicode="I" horiz-adv-x="487" d="M117 0v1413h254v-1413h-254z" />
<glyph unicode="J" horiz-adv-x="604" d="M35 12l26 181h74q105 0 105 124v1096h254v-1102q0 -160 -66.5 -247t-187.5 -87q-45 0 -109 10.5t-96 24.5z" />
<glyph unicode="K" horiz-adv-x="1042" d="M117 0v1413h254v-418q0 -75 -13 -161h80l303 579h275l-301 -569q-28 -50 -88 -107v-6q72 -65 102 -121l305 -610h-282l-312 637h-84q15 -88 15 -139v-498h-254z" />
<glyph unicode="L" horiz-adv-x="876" d="M113 289v1124h254v-1083q0 -66 18.5 -91.5t69.5 -25.5h385l14 -199q-169 -18 -465 -18q-276 0 -276 293z" />
<glyph unicode="M" horiz-adv-x="1505" d="M94 0l41 1313q3 100 96 100h254q83 0 101 -86l127 -764q26 -174 28 -194h21q12 98 26 194l127 764q18 86 105 86h250q95 0 98 -100l45 -1313h-244l-36 1206h-31l-156 -940q-18 -86 -104 -86h-178q-86 0 -107 86l-158 940h-30l-31 -1206h-244z" />
<glyph unicode="N" horiz-adv-x="1200" d="M117 0v1319q0 45 23.5 69.5t66.5 24.5h211q79 0 102 -78l236 -825l65 -236h19q-2 84 -2 244v895h245v-1319q0 -94 -90 -94h-211q-79 0 -102 78l-242 848q-27 94 -61 223h-17q5 -185 5 -225v-924h-248z" />
<glyph unicode="O" horiz-adv-x="1130" d="M78 707q0 213 25 351.5t84 225t149.5 121.5t228.5 35q184 0 288 -67t152 -225t48 -441q0 -213 -25 -352t-84.5 -225t-150 -121.5t-228.5 -35.5q-111 0 -189.5 23t-137 73.5t-93 137t-51 208t-16.5 292.5zM346 707q0 -200 20 -309.5t66.5 -157t132.5 -47.5t133 48 t66.5 156.5t19.5 309.5t-19.5 309.5t-66.5 156.5t-133 48t-132.5 -47.5t-66.5 -157t-20 -309.5z" />
<glyph unicode="P" horiz-adv-x="1011" d="M117 0v1413q160 19 430 19q162 0 249 -40t126 -137t39 -278q0 -136 -19 -222.5t-66 -139t-116.5 -73t-179.5 -20.5q-102 0 -209 13v-535h-254zM371 731h172q95 0 129.5 50.5t34.5 195.5q0 144 -34.5 194t-129.5 50h-172v-490z" />
<glyph unicode="Q" horiz-adv-x="1134" d="M80 707q0 213 25 351.5t84 225t149.5 121.5t228.5 35q184 0 288 -67t152 -225t48 -441q0 -213 -25 -352t-84.5 -225t-150 -121.5t-228.5 -35.5q-111 0 -189.5 23t-137 73.5t-93 137t-51 208t-16.5 292.5zM348 707q0 -201 19.5 -309.5t66.5 -156.5t133 -48t132.5 47.5 t66.5 157t20 309.5t-20 309.5t-66.5 157t-132.5 47.5t-133 -48t-66.5 -156.5t-19.5 -309.5zM424 -227l59 149q224 -90 504 -135l-76 -246q-231 64 -487 232z" />
<glyph unicode="R" horiz-adv-x="1060" d="M117 0v1413q160 19 432 19q114 0 190.5 -19.5t129.5 -67t76.5 -127t23.5 -200.5q0 -164 -49.5 -251t-165.5 -105v-11q51 -14 97 -65.5t64 -143.5l97 -442h-271l-84 438q-13 70 -40.5 98.5t-77.5 28.5h-170v-565h-252zM369 776h176q97 2 132.5 48.5t35.5 176.5 q0 129 -35 174.5t-133 45.5h-176v-445z" />
<glyph unicode="S" horiz-adv-x="960" d="M72 1059q0 81 10 140.5t32.5 101.5t53 69t79.5 42t103 20.5t131 5.5q222 0 375 -47l-14 -183q-141 6 -353 6q-52 0 -77 -3.5t-47.5 -19t-29.5 -47.5t-7 -89q0 -88 24.5 -124.5t89.5 -64.5l213 -84q133 -52 186.5 -150t53.5 -261q0 -122 -21.5 -198t-74.5 -120.5 t-129.5 -61t-200.5 -16.5q-194 0 -383 45l14 189q308 -8 373 -8q101 0 132.5 32t31.5 140q0 62 -13 98.5t-32 52.5t-60 35l-225 90q-127 50 -181 148.5t-54 261.5z" />
<glyph unicode="T" horiz-adv-x="995" d="M33 1192v221h932v-221h-338v-1192h-256v1192h-338z" />
<glyph unicode="U" horiz-adv-x="1122" d="M109 553v860h253v-860q0 -204 43 -282t156 -78q111 0 155 78.5t44 281.5v860h254v-860q0 -317 -99.5 -448.5t-341.5 -131.5q-256 0 -360 131t-104 449z" />
<glyph unicode="V" horiz-adv-x="1052" d="M12 1413h262l205 -1061q12 -61 27 -157h41q4 36 28 157l203 1061h262l-307 -1341q-7 -32 -32.5 -52t-57.5 -20h-233q-33 0 -57.5 20t-30.5 52z" />
<glyph unicode="W" horiz-adv-x="1611" d="M45 1413h264l103 -1030q3 -25 5.5 -56t5.5 -71.5t5 -65.5h31q4 46 24 193l115 948q6 38 30 60t62 22h234q35 0 59.5 -22.5t30.5 -59.5l114 -950q17 -129 23 -191h33q6 98 16 189l105 1034h262l-172 -1341q-8 -32 -32 -52t-58 -20h-254q-36 0 -61.5 20.5t-31.5 53.5 l-118 985q-1 13 -9 73.5t-10 92.5h-30q-16 -145 -19 -166l-117 -985q-6 -33 -32 -53.5t-60 -20.5h-256q-34 0 -59 20t-31 52z" />
<glyph unicode="X" horiz-adv-x="1056" d="M16 0l291 727l-268 686h264l213 -590h25l213 590h266l-272 -686l292 -727h-268l-233 639h-21l-233 -639h-269z" />
<glyph unicode="Y" horiz-adv-x="1003" d="M0 1413h266l187 -549q20 -59 41 -170h16q21 112 43 170l184 549h264l-372 -936v-477h-254v481z" />
<glyph unicode="Z" horiz-adv-x="962" d="M70 0v209l536 995h-524v209h801v-209l-539 -995h551v-209h-825z" />
<glyph unicode="[" horiz-adv-x="575" d="M127 -201v1637q0 60 35.5 98.5t91.5 38.5h268v-158h-135q-13 0 -22 -10t-9 -27v-1521q0 -17 9 -27t22 -10h135v-158h-268q-127 0 -127 137z" />
<glyph unicode="\" horiz-adv-x="909" d="M31 1413h196l654 -1554h-199z" />
<glyph unicode="]" horiz-adv-x="575" d="M53 -180h133q14 0 22.5 10t8.5 27v1521q0 17 -8.5 27t-22.5 10h-133v158h264q57 0 94.5 -38.5t37.5 -98.5v-1637q0 -60 -37.5 -98.5t-94.5 -38.5h-264v158z" />
<glyph unicode="^" horiz-adv-x="768" d="M49 813l246 449h180l242 -449l-96 -57l-230 348h-14l-232 -348z" />
<glyph unicode="_" horiz-adv-x="737" d="M0 0h737v-176h-737v176z" />
<glyph unicode="`" horiz-adv-x="585" d="M33 1315l121 182l331 -301l-73 -111z" />
<glyph unicode="a" d="M59 268v103q0 120 67 186t187 66h285v61q-1 85 -30 114t-109 29q-118 0 -336 -20l-23 176q87 20 213.5 34.5t202.5 14.5q170 0 249 -78t79 -272v-682h-195l-22 137q-116 -160 -297 -160q-119 0 -195 77t-76 214zM307 301q0 -65 21 -94t67 -29q43 0 96.5 26t106.5 77v172 h-219q-42 -3 -57 -30.5t-15 -82.5v-39z" />
<glyph unicode="b" horiz-adv-x="978" d="M98 51v1383h248l2 -338q0 -130 -24 -226q125 162 288 162q156 0 228.5 -123t72.5 -401q0 -102 -10 -179.5t-36.5 -146.5t-71 -113t-115 -69t-166.5 -25q-99 0 -223 20.5t-193 55.5zM344 717l2 -522q70 -22 140 -22l22 1q84 2 116.5 73.5t32.5 260.5q0 187 -26.5 251 t-116.5 64q-44 0 -83 -26.5t-87 -79.5z" />
<glyph unicode="c" horiz-adv-x="835" d="M66 504q0 290 92.5 409t316.5 119q184 0 303 -57l-28 -156q-176 4 -232 4q-110 0 -151 -66.5t-41 -252.5q0 -188 41 -256t151 -68q127 0 250 21l20 -164q-127 -62 -315 -62q-224 0 -315.5 118.5t-91.5 410.5z" />
<glyph unicode="d" horiz-adv-x="980" d="M68 508q0 148 20.5 250t62 162t98 86t136.5 26q152 0 256 -82q-6 94 -6 195v289h246v-1434h-197l-16 131q-55 -68 -136 -112t-178 -44q-150 0 -218 135t-68 398zM324 510q0 -131 13.5 -202t40 -96.5t73.5 -25.5q53 0 87 20.5t97 80.5v506q-106 36 -172 36 q-54 0 -82 -23.5t-42.5 -92.5t-14.5 -203z" />
<glyph unicode="e" horiz-adv-x="921" d="M66 504q0 198 43.5 314t131.5 165t236 49q205 0 296 -86.5t91 -261.5q0 -287 -237 -287h-299q9 -131 50 -174t140 -43q121 0 303 23l21 -160q-128 -68 -355 -68q-230 0 -325.5 120.5t-95.5 408.5zM324 571h233q21 0 34 10t18.5 29.5t7 35.5t1.5 42v11q0 73 -26 104 q-28 33 -105 33q-93 0 -126.5 -54t-36.5 -211z" />
<glyph unicode="f" horiz-adv-x="673" d="M33 823v170l145 11v165q0 147 62.5 225.5t205.5 78.5q165 0 263 -19l-23 -176h-154q-59 0 -82.5 -32t-23.5 -109v-133h223v-181h-223v-823h-248v823h-145z" />
<glyph unicode="g" horiz-adv-x="958" d="M39 -106q0 87 30 135.5t107 93.5q-51 54 -51 137q0 12 1 25q9 100 69 149q-119 68 -119 275q0 177 84.5 250t298.5 73q140 0 217 -28h260l-14 -121l-105 -15q23 -62 23 -159q0 -174 -84.5 -249t-298.5 -75q-81 0 -133 8q-8 -21 -8 -44q0 -17 4 -35q10 -43 45 -50l292 -51 q128 -22 183 -92t55 -207q0 -179 -94 -247t-332 -68q-167 0 -259.5 29t-131.5 91.5t-39 174.5zM276 -76q0 -81 35.5 -104t147.5 -23q125 0 161.5 24t36.5 103q0 35 -5 54.5t-23.5 31.5t-38.5 17t-66 12l-184 29q-37 -37 -50.5 -68t-13.5 -76zM301 709q0 -84 33.5 -117 t122.5 -33t122 32.5t33 117.5t-33 116t-122 31t-122.5 -31t-33.5 -116z" />
<glyph unicode="h" horiz-adv-x="991" d="M100 0v1434h248v-369q0 -97 -14 -193q174 160 334 160q110 0 168.5 -71.5t58.5 -206.5v-754h-248v678q0 85 -13.5 114t-51.5 29q-50 0 -103.5 -27.5t-130.5 -88.5v-705h-248z" />
<glyph unicode="i" horiz-adv-x="462" d="M104 1255v113q0 72 70 72h113q71 0 71 -72v-113q0 -71 -71 -71h-113q-70 0 -70 71zM109 0v1004h245v-1004h-245z" />
<glyph unicode="j" horiz-adv-x="462" d="M10 -299q55 72 78 146t23 171v986h245v-986q0 -132 -56 -247t-153 -181zM106 1260v110q0 72 70 72h113q69 0 69 -72v-110q0 -72 -69 -72h-113q-70 0 -70 72z" />
<glyph unicode="k" horiz-adv-x="919" d="M100 0v1434h248v-611q0 -91 -12 -176h63l211 357h277l-209 -357q-29 -51 -76 -84v-4q15 -11 38 -40t38 -56l235 -463h-276l-234 479h-67q12 -80 12 -151v-328h-248z" />
<glyph unicode="l" horiz-adv-x="542" d="M102 252v1182h248l-2 -1123q0 -114 90 -114h64l28 -185q-28 -16 -88.5 -25.5t-103.5 -9.5q-110 0 -173 72t-63 203z" />
<glyph unicode="m" horiz-adv-x="1454" d="M100 0v1004h199l16 -148q77 90 151 133t157 43q167 0 211 -162q143 162 296 162q112 0 170 -71t58 -207v-754h-244v678q-2 80 -18 111.5t-64 31.5q-21 0 -37.5 -4.5t-43 -24t-41 -32t-62.5 -55.5v-705h-236v678q0 79 -20 111t-64 32q-38 0 -73 -22t-109 -90v-709h-246z " />
<glyph unicode="n" horiz-adv-x="991" d="M100 0v1004h205l17 -148q179 176 346 176q110 0 168.5 -71.5t58.5 -206.5v-754h-246v678q0 85 -13.5 114t-53.5 29q-48 0 -101 -28t-135 -91l2 -702h-248z" />
<glyph unicode="o" horiz-adv-x="968" d="M66 502q0 289 95 409.5t322 120.5q229 0 324.5 -120.5t95.5 -409.5t-95.5 -409t-324.5 -120q-227 0 -322 120t-95 409zM326 502q0 -195 32 -262.5t127 -67.5t127.5 68t32.5 262q0 196 -32.5 264t-127.5 68t-127 -68t-32 -264z" />
<glyph unicode="p" horiz-adv-x="997" d="M100 -399v1403h201l18 -146q51 76 144.5 124t187.5 48q279 0 279 -536q0 -193 -38 -309t-105.5 -163t-174.5 -47q-163 0 -270 91q5 -76 5 -144q0 -29 -1 -57v-264h-246zM346 219q14 -4 45.5 -14.5t47.5 -15t42 -9t51 -4.5q55 0 84 24.5t43.5 93.5t14.5 202 q0 187 -26.5 258t-92.5 71q-50 0 -97.5 -30t-111.5 -95v-481z" />
<glyph unicode="q" horiz-adv-x="974" d="M66 498q0 133 16.5 225t60 165t124 108.5t202.5 35.5q94 0 217.5 -20.5t192.5 -55.5l-2 -2v-1353h-246l-2 309q0 106 18 205q-61 -66 -136.5 -104t-154.5 -38q-148 0 -219 127.5t-71 397.5zM319 485q0 -165 25.5 -232t104.5 -67q50 0 90.5 23t91.5 70v534q-71 22 -141 22 l-23 -1q-58 -3 -88.5 -33t-45 -104t-14.5 -212z" />
<glyph unicode="r" horiz-adv-x="702" d="M100 0v1004h193l22 -146q166 174 328 174h43l-24 -233h-68q-47 0 -100.5 -20t-145.5 -66v-713h-248z" />
<glyph unicode="s" horiz-adv-x="872" d="M63 748q0 163 76 223.5t269 60.5q209 -4 376 -37l-16 -172q-212 8 -313 8q-100 0 -126 -13t-26 -73q0 -15 2 -26.5t3 -20t8.5 -16t10 -11t15.5 -9.5t17 -7.5t23.5 -8.5t25.5 -9l204 -74q109 -37 155 -99t46 -190q0 -92 -20 -150t-68.5 -90.5t-115.5 -44.5t-173 -12 q-192 0 -358 33l14 172q82 -6 279 -6q125 0 164.5 18t39.5 78q0 26 -4.5 42t-20.5 28t-27.5 17t-44.5 16q-11 4 -17 6l-201 72q-112 37 -154.5 104t-42.5 191z" />
<glyph unicode="t" horiz-adv-x="686" d="M31 823v170l147 11v288h246v-288h223v-181h-223v-512q0 -65 18 -89.5t70 -24.5h102l27 -185q-41 -16 -110.5 -25.5t-118.5 -9.5q-112 0 -173 76.5t-61 216.5v553h-147z" />
<glyph unicode="u" horiz-adv-x="974" d="M96 252v752h248v-678v-16q0 -67 16 -95q18 -31 64 -31q40 0 87 25t118 80v715h245v-1004h-196l-19 131q-87 -80 -167 -119t-166 -39q-113 0 -171.5 70.5t-58.5 208.5z" />
<glyph unicode="v" horiz-adv-x="929" d="M12 1004h260l146 -662q27 -128 35 -174h22q6 34 20.5 100.5t16.5 73.5l145 662h261l-267 -945q-19 -59 -80 -59h-215q-28 0 -49 15.5t-28 43.5z" />
<glyph unicode="w" horiz-adv-x="1398" d="M25 1004h249l111 -691q17 -145 18 -157h21q14 90 22 157l68 617q3 33 27.5 53.5t58.5 20.5h199q35 0 59 -20.5t27 -55.5l65 -615q2 -20 11.5 -73.5t11.5 -83.5h22q7 90 19 157l108 691h252l-198 -936q-6 -32 -29.5 -50t-56.5 -18h-207q-33 0 -59 22t-29 56l-68 616 q-2 19 -5 52t-6 61t-7 53h-21l-18 -166l-66 -616q-4 -35 -30 -56.5t-62 -21.5h-201q-34 0 -57 18t-29 50z" />
<glyph unicode="x" horiz-adv-x="927" d="M16 0l246 516l-227 488h252l168 -394h20l168 394h252l-227 -488l245 -516h-254l-188 430h-12l-189 -430h-254z" />
<glyph unicode="y" horiz-adv-x="927" d="M12 1004h262l150 -691q17 -74 25 -135h20q3 9 35 135l147 691h262l-284 -1037q-17 -59 -41.5 -112.5t-64 -106t-88 -90t-115.5 -58.5q-54 -17 -115 -17q-14 0 -29 1l-20 156q98 35 155 91.5t88 145.5l9 23h-52q-30 0 -52.5 16t-29.5 45z" />
<glyph unicode="z" horiz-adv-x="868" d="M70 0v190l444 623h-438v191h717v-191l-445 -623h453v-190h-731z" />
<glyph unicode="{" horiz-adv-x="565" d="M57 588v168q53 21 64 32q20 21 22 95v22v389q0 154 88 227.5t275 51.5v-154q-73 0 -100 -31t-27 -116v-334q2 -130 -33.5 -187.5t-136.5 -78.5q100 -34 137 -91t39 -167v-453q0 -85 26.5 -115t100.5 -30v-154q-362 -43 -362 279v505q0 47 -10 73t-24.5 36.5t-50.5 28.5 q-5 3 -8 4z" />
<glyph unicode="|" horiz-adv-x="432" d="M129 -346v1945h174v-1945h-174z" />
<glyph unicode="}" horiz-adv-x="567" d="M55 -184q74 0 100.5 30t26.5 115v453q2 110 39 167t137 91q-100 21 -136 79t-34 187v334q0 85 -27 116t-100 31v154q186 22 274.5 -51.5t88.5 -227.5v-389q0 -58 6.5 -84t20 -36.5t48.5 -24.5q7 -3 11 -4v-168q-33 -16 -44.5 -22.5t-26 -22.5t-18 -38t-3.5 -59v-505 q0 -154 -88.5 -227.5t-274.5 -51.5v154z" />
<glyph unicode="~" horiz-adv-x="854" d="M106 453q-19 138 21.5 209.5t112.5 68.5q52 -3 183.5 -54.5t154.5 -55.5q37 -6 47 15t10 85h115q19 -135 -20.5 -207.5t-113.5 -67.5q-56 2 -186 53.5t-154 55.5q-36 6 -46.5 -16t-10.5 -86h-113z" />
<glyph unicode="&#xa1;" horiz-adv-x="468" d="M113 186l24 398h195l24 -398v-575h-243v575zM121 831v107q0 50 18.5 69t67.5 19h57q49 0 67.5 -19t18.5 -69v-107q0 -49 -18 -67.5t-68 -18.5h-57q-49 0 -67.5 18.5t-18.5 67.5z" />
<glyph unicode="&#xa2;" horiz-adv-x="858" d="M63 715q0 290 92.5 409t317.5 119h23l16 170h121l-17 -182q97 -14 160 -45l-28 -162q-106 8 -150 8l-47 -641q125 4 215 21l20 -164q-100 -50 -256 -60l-16 -188h-119l17 188q-190 13 -269.5 134t-79.5 393zM315 715q0 -150 26.5 -221t90.5 -93l43 631 q-89 -9 -124.5 -78.5t-35.5 -238.5z" />
<glyph unicode="&#xa3;" horiz-adv-x="966" d="M76 813h119l-13 248q-3 79 4 138t26 100.5t46 68.5t68 42.5t86.5 21.5t107.5 6q139 0 342 -21l-12 -200q-108 6 -297 6q-72 0 -98.5 -35.5t-22.5 -134.5l14 -240h293l-6 -137h-276l6 -115q6 -131 -23.5 -207t-95.5 -151q41 12 125 12h430v-215h-815v215q80 44 106 130.5 t19 215.5l-6 115h-125z" />
<glyph unicode="&#xa4;" horiz-adv-x="970" d="M80 350l121 148q-54 103 -54 221q0 124 60 231l-121 148l102 104l113 -139q84 65 182 65q104 0 187 -67l114 141l103 -104l-123 -150q57 -102 57 -229q0 -125 -59 -230l125 -147l-105 -104l-114 139q-85 -66 -185 -66q-98 0 -180 66l-115 -137zM289 721 q0 -109 57.5 -186.5t136.5 -77.5q77 0 135 77.5t58 186.5q0 110 -57.5 188t-135.5 78q-79 0 -136.5 -78.5t-57.5 -187.5z" />
<glyph unicode="&#xa5;" horiz-adv-x="1046" d="M23 1413h264l186 -534q7 -20 45 -170h17q17 93 43 170l184 534h262l-299 -731h207v-150h-268l-13 -32v-60h281v-147h-281v-293h-254v293h-274l-2 147h276v66l-10 26h-264l-4 150h205z" />
<glyph unicode="&#xa6;" horiz-adv-x="434" d="M131 -346v819h172v-819h-172zM131 780v819h172v-819h-172z" />
<glyph unicode="&#xa7;" horiz-adv-x="915" d="M82 1155q0 70 15.5 120t44 82t75.5 50.5t101.5 25.5t130.5 7q165 0 370 -25l-16 -188q-112 10 -281 10q-35 0 -53.5 -0.5t-42 -3t-35 -8.5t-23.5 -15.5t-17.5 -25t-6.5 -37.5q-2 -39 11.5 -69.5t30.5 -47.5t48 -41l223 -164q89 -54 131 -126t42 -163t-29 -208h-172 q5 129 -20 195t-105 120l-256 191q-31 25 -48.5 40t-43.5 45.5t-39.5 60t-24 75.5t-10.5 100zM87 553q0 91 28 209h172q-5 -130 20 -194t103 -119l258 -189q32 -25 48.5 -40t43 -46.5t40.5 -61.5t25 -76.5t11 -101.5q0 -90 -24 -148t-75.5 -87.5t-113 -40t-156.5 -10.5 q-193 0 -371 24l19 189q153 -13 280 -13q97 0 135 17t41 80q3 56 -19 89.5t-67 67.5l-223 162q-90 54 -132.5 126t-42.5 163z" />
<glyph unicode="&#xa8;" horiz-adv-x="702" d="M106 1264v112q0 64 58 64h80q57 0 57 -64v-112q0 -62 -57 -62h-80q-58 0 -58 62zM406 1264v112q0 64 57 64h80q27 0 42 -17t15 -47v-112q0 -62 -57 -62h-80q-57 0 -57 62z" />
<glyph unicode="&#xa9;" horiz-adv-x="1347" d="M74 707q0 157 47 294t127.5 233t191 151t234.5 55q125 0 235.5 -55t191 -151t127 -233t46.5 -294q0 -209 -79.5 -377.5t-217 -262.5t-303.5 -94q-124 0 -234.5 55.5t-191 151.5t-127.5 233t-47 294zM197 707q0 -172 65 -313t174 -219.5t238 -78.5q130 0 238.5 78.5 t172.5 219.5t64 313t-64 312.5t-172.5 219t-238.5 78.5q-129 0 -238 -78t-174 -219t-65 -313zM358 711q0 239 73.5 337.5t250.5 98.5q128 0 227 -29l-16 -139q-108 6 -213 6q-79 0 -106 -57t-27 -217q0 -161 27 -218t106 -57q144 0 231 10l13 -139q-103 -35 -242 -35 q-177 0 -250.5 99t-73.5 340z" />
<glyph unicode="&#xaa;" horiz-adv-x="724" d="M78 729v76q0 78 46 123t126 45h203v41q0 45 -18.5 67.5t-63.5 22.5q-64 0 -248 -12l-17 129q164 32 308 32q111 0 165 -54.5t54 -186.5v-451h-146l-16 105q-87 -121 -215 -121q-78 0 -128 48t-50 136zM252 768q0 -42 16 -58t51 -16q61 0 134 66v112l-140 -14 q-35 -3 -48 -20t-13 -50v-20z" />
<glyph unicode="&#xab;" horiz-adv-x="862" d="M59 487v54l263 405l129 -84l-172 -348l174 -356l-129 -84zM401 487v54l263 405l131 -84l-174 -348l174 -356l-129 -84z" />
<glyph unicode="&#xac;" horiz-adv-x="968" d="M98 522v183h764v-431h-184v248h-580z" />
<glyph unicode="&#xad;" horiz-adv-x="684" d="M96 432v176h496v-176h-496z" />
<glyph unicode="&#xae;" horiz-adv-x="868" d="M66 983q0 189 107.5 322t262.5 133q152 0 259.5 -133t107.5 -322q0 -190 -107.5 -323.5t-259.5 -133.5q-155 0 -262.5 133t-107.5 324zM139 983q0 -157 87 -268t210 -111q120 0 206.5 111.5t86.5 267.5q0 158 -86 268.5t-207 110.5q-123 0 -210 -110.5t-87 -268.5z M270 737v500q53 6 174 6q93 0 132.5 -31t39.5 -114q0 -56 -19.5 -86t-68.5 -37v-4q53 -9 66 -78l39 -156h-111l-33 152q-6 26 -16.5 36.5t-30.5 10.5h-67v-199h-105zM375 1012h67q40 2 55 17.5t15 57.5q0 45 -14.5 59.5t-55.5 14.5h-67v-149z" />
<glyph unicode="&#xaf;" horiz-adv-x="665" d="M84 1231v172h498v-172h-498z" />
<glyph unicode="&#xb0;" horiz-adv-x="569" d="M59 1176q0 109 66 186.5t160 77.5q92 0 159.5 -77.5t67.5 -186.5q0 -110 -67.5 -190.5t-159.5 -80.5t-159 80.5t-67 190.5zM197 1176q0 -58 25.5 -95t62.5 -37q36 0 62 37.5t26 94.5q0 56 -25.5 91.5t-62.5 35.5t-62.5 -35.5t-25.5 -91.5z" />
<glyph unicode="&#xb1;" horiz-adv-x="954" d="M98 115v180h758v-180h-758zM98 657v185h287v256h184v-256h287v-185h-289v-256h-182v256h-287z" />
<glyph unicode="&#xb2;" horiz-adv-x="714" d="M80 737v105q0 41 29 80l165 217q124 153 132 231q4 41 -17.5 54.5t-71.5 13.5q-87 0 -225 -11l-6 144q122 28 248 28q149 0 213.5 -41.5t64.5 -164.5q0 -113 -118 -267l-175 -227q37 8 99 8l215 -2v-168h-553z" />
<glyph unicode="&#xb3;" horiz-adv-x="684" d="M76 743l6 142q123 -8 209 -8q75 0 101 25.5t26 96.5q0 53 -21 81t-82 28l-143 2v135h143q58 0 76.5 29.5t18.5 81.5q0 54 -22 72t-85 18q-97 0 -207 -4l-6 137q138 23 246 23q143 0 199.5 -42.5t56.5 -154.5q0 -96 -27 -149t-100 -66v-4q81 -13 112 -63.5t33 -149.5 q2 -135 -58.5 -193.5t-209.5 -58.5q-112 0 -266 22z" />
<glyph unicode="&#xb4;" horiz-adv-x="585" d="M80 1196l332 301l120 -182l-378 -230z" />
<glyph unicode="&#xb6;" horiz-adv-x="993" d="M47 922q0 283 120 399.5t406 116.5q172 0 283 -35l-2 -29v-1374h-170v1280q-66 4 -90 4v-1714h-168v842q-202 23 -290.5 142t-88.5 368z" />
<glyph unicode="&#xb7;" horiz-adv-x="430" d="M94 477v103q0 51 18 69.5t68 18.5h72q48 0 67 -19t19 -69v-103q0 -51 -19 -70.5t-67 -19.5h-72q-49 0 -67.5 19.5t-18.5 70.5z" />
<glyph unicode="&#xb8;" horiz-adv-x="413" d="M41 -481l35 121q54 -2 92 32t41 92q2 28 -18 37t-85 9l25 108q136 16 190 -9.5t50 -123.5q-4 -142 -98 -214.5t-232 -51.5z" />
<glyph unicode="&#xb9;" horiz-adv-x="505" d="M33 1499l184 86h189v-848h-189v590q0 61 6 94l-170 -51z" />
<glyph unicode="&#xba;" horiz-adv-x="729" d="M70 897q0 195 66.5 275.5t228.5 80.5t227 -80t65 -276q0 -194 -65 -273t-227 -79q-163 0 -229 79t-66 273zM258 897q0 -122 22.5 -165.5t84.5 -43.5q61 0 82.5 43t21.5 166q0 126 -21 168.5t-83 42.5t-84.5 -43t-22.5 -168z" />
<glyph unicode="&#xbb;" horiz-adv-x="862" d="M66 158l174 356l-172 348l129 84l262 -405v-54l-264 -413zM410 158l174 356l-174 348l131 84l262 -405v-54l-264 -413z" />
<glyph unicode="&#xbc;" horiz-adv-x="1486" d="M41 1327l182 86h187v-848h-187v590q0 61 6 94l-166 -51zM252 0l688 1413h160l-688 -1413h-160zM815 222.5q-26 40.5 0 103.5l182 522h177l-162 -486q-6 -15 0.5 -25.5t21.5 -10.5h142v223l32 135h144v-358h82v-127l-82 -17v-182h-176v182h-285q-50 0 -76 40.5z" />
<glyph unicode="&#xbd;" horiz-adv-x="1509" d="M41 1327l182 86h187v-848h-187v590q0 61 6 94l-166 -51zM238 0l686 1413h163l-688 -1413h-161zM893 0v104q0 51 29 80l163 217q124 153 132 232q4 41 -17.5 54t-69.5 13q-102 0 -225 -10l-6 144q119 28 248 28q147 0 210.5 -42t63.5 -165q0 -125 -118 -272l-173 -221 q39 8 101 8l213 -2v-168h-551z" />
<glyph unicode="&#xbe;" horiz-adv-x="1630" d="M72 567l6 142q138 -9 209 -9q74 0 99.5 25.5t25.5 95.5q0 54 -21 82.5t-80 28.5l-141 4v127l141 6q30 0 49 8.5t27.5 26t11 33.5t2.5 41q0 56 -19.5 74t-82.5 18q-99 0 -205 -4l-6 137q120 20 244 20q145 0 199.5 -42t54.5 -152q0 -98 -27 -150t-100 -65v-4 q82 -13 113.5 -63.5t33.5 -149.5q2 -135 -59.5 -193.5t-210.5 -58.5q-110 0 -264 22zM406 0l688 1413h161l-688 -1413h-161zM962.5 220q-23.5 38 0.5 106l180 522h176l-162 -486q-5 -15 1.5 -25.5t21.5 -10.5h145v223l31 135h145v-358h78v-127l-78 -15v-184h-176v182h-289 q-50 0 -73.5 38z" />
<glyph unicode="&#xbf;" horiz-adv-x="841" d="M45 -106q0 71 20.5 133t51.5 105.5t68 94t69.5 97t57.5 117t30 151.5h201q3 -103 -18.5 -190t-56 -146t-69.5 -109.5t-62 -103.5t-30 -104q-5 -79 31.5 -117.5t118.5 -38.5q133 0 331 14l9 -174q-7 -2 -39 -9t-38.5 -8.5t-34 -7.5t-38 -7t-36 -5t-44 -4.5t-47 -2.5 t-58.5 -2.5t-65 -0.5q-179 0 -265.5 78t-86.5 240zM328 840v106q0 50 19 69t69 19h55q50 0 68 -19t18 -69v-106q0 -50 -18 -69t-68 -19h-55q-50 0 -69 19t-19 69z" />
<glyph unicode="&#xc0;" horiz-adv-x="1075" d="M2 0l326 1346q9 32 33 49.5t57 17.5h239q33 0 57 -17.5t31 -49.5l328 -1346h-260l-84 399h-383l-84 -399h-260zM201 1712l121 182l331 -301l-73 -110zM389 610h295l-100 488q-3 13 -9 38t-10 45.5t-6 37.5h-45q-3 -27 -22 -121z" />
<glyph unicode="&#xc1;" horiz-adv-x="1075" d="M2 0l326 1346q9 32 33 49.5t57 17.5h239q33 0 57 -17.5t31 -49.5l328 -1346h-260l-84 399h-383l-84 -399h-260zM389 610h295l-100 488q-3 13 -9 38t-10 45.5t-6 37.5h-45q-3 -27 -22 -121zM399 1593l332 301l121 -182l-379 -229z" />
<glyph unicode="&#xc2;" horiz-adv-x="1075" d="M2 0l326 1346q9 32 33 49.5t57 17.5h239q33 0 57 -17.5t31 -49.5l328 -1346h-260l-84 399h-383l-84 -399h-260zM233 1583l218 268h180l217 -270l-74 -100l-227 196h-12l-230 -196zM389 610h295l-100 488q-3 13 -9 38t-10 45.5t-6 37.5h-45q-3 -27 -22 -121z" />
<glyph unicode="&#xc3;" horiz-adv-x="1075" d="M2 0l326 1346q9 32 33 49.5t57 17.5h239q33 0 57 -17.5t31 -49.5l328 -1346h-260l-84 399h-383l-84 -399h-260zM250 1556q-18 132 24 203t111 64q58 -5 141 -51t125 -52q39 -7 51.5 13.5t12.5 78.5h104q20 -127 -20.5 -198.5t-114.5 -65.5q-38 3 -78 19t-68 33.5 t-61.5 34t-58.5 20.5q-39 7 -50.5 -15.5t-11.5 -83.5h-106zM389 610h295l-100 488q-3 13 -9 38t-10 45.5t-6 37.5h-45q-3 -27 -22 -121z" />
<glyph unicode="&#xc4;" horiz-adv-x="1075" d="M2 0l326 1346q9 32 33 49.5t57 17.5h239q33 0 57 -17.5t31 -49.5l328 -1346h-260l-84 399h-383l-84 -399h-260zM291 1624v113q0 63 57 63h80q57 0 57 -63v-113q0 -61 -57 -61h-80q-57 0 -57 61zM389 610h295l-100 488q-3 13 -9 38t-10 45.5t-6 37.5h-45q-3 -27 -22 -121z M590 1624v113q0 63 57 63h80q27 0 42 -16.5t15 -46.5v-113q0 -61 -57 -61h-80q-57 0 -57 61z" />
<glyph unicode="&#xc5;" horiz-adv-x="1075" d="M2 0l326 1346q9 32 33 49.5t57 17.5h239q33 0 57 -17.5t31 -49.5l328 -1346h-260l-84 399h-383l-84 -399h-260zM342 1686q0 96 58.5 162.5t138.5 66.5t138 -66.5t58 -162.5t-57 -161t-139 -65t-139.5 65t-57.5 161zM389 610h295l-100 488q-3 13 -9 38t-10 45.5t-6 37.5 h-45q-3 -27 -22 -121zM459 1686q0 -49 23 -79t57 -30q35 0 57 29.5t22 79.5q0 51 -22 81.5t-57 30.5t-57.5 -30.5t-22.5 -81.5z" />
<glyph unicode="&#xc6;" horiz-adv-x="1540" d="M-20 0l479 1163q41 100 94.5 152.5t142.5 76t242 23.5q332 0 535 -14l-15 -199h-401q-40 0 -64 -33.5t-24 -91.5v-237h430v-199h-430v-313q0 -66 19 -92.5t69 -26.5h401l15 -197q-166 -16 -527 -16q-97 0 -156 74.5t-59 193.5v150h-328l-161 -414h-262zM483 616h248v492 q0 39 11 78.5t26 60.5h-18q-30 -26 -66 -114z" />
<glyph unicode="&#xc7;" horiz-adv-x="970" d="M78 707q0 205 25 342t83 225t147.5 126t223.5 38q117 0 189.5 -10t152.5 -35l-22 -195q-148 14 -320 14q-83 0 -128 -47t-64 -154t-19 -304t19 -304t64 -154.5t128 -47.5q219 0 344 20l21 -192q-80 -30 -161.5 -42t-203.5 -12q-178 0 -281.5 71.5t-150.5 229.5t-47 431z M350 -512l35 121q54 -2 92 32.5t41 92.5q2 28 -17 36.5t-85 8.5l24 108q136 16 190 -9.5t50 -123.5q-4 -142 -98 -214.5t-232 -51.5z" />
<glyph unicode="&#xc8;" horiz-adv-x="954" d="M106 264v885q1 124 72 196t191 72q364 0 518 -16l-13 -197h-440q-40 0 -54.5 -26t-14.5 -93v-247h448v-197h-448v-315q0 -67 14.5 -93t54.5 -26h440l13 -195q-154 -16 -518 -16q-121 0 -191 71.5t-72 196.5zM182 1747l121 182l332 -301l-74 -110z" />
<glyph unicode="&#xc9;" horiz-adv-x="954" d="M106 264v885q1 124 72 196t191 72q364 0 518 -16l-13 -197h-440q-40 0 -54.5 -26t-14.5 -93v-247h448v-197h-448v-315q0 -67 14.5 -93t54.5 -26h440l13 -195q-154 -16 -518 -16q-121 0 -191 71.5t-72 196.5zM381 1628l332 301l121 -182l-379 -229z" />
<glyph unicode="&#xca;" horiz-adv-x="954" d="M106 264v885q1 124 72 196t191 72q364 0 518 -16l-13 -197h-440q-40 0 -54.5 -26t-14.5 -93v-247h448v-197h-448v-315q0 -67 14.5 -93t54.5 -26h440l13 -195q-154 -16 -518 -16q-121 0 -191 71.5t-72 196.5zM215 1616l217 268h180l217 -270l-73 -101l-228 197h-12 l-229 -197z" />
<glyph unicode="&#xcb;" horiz-adv-x="954" d="M106 264v885q1 124 72 196t191 72q364 0 518 -16l-13 -197h-440q-40 0 -54.5 -26t-14.5 -93v-247h448v-197h-448v-315q0 -67 14.5 -93t54.5 -26h440l13 -195q-154 -16 -518 -16q-121 0 -191 71.5t-72 196.5zM272 1659v113q0 63 58 63h80q57 0 57 -63v-113q0 -62 -57 -62 h-80q-58 0 -58 62zM571 1659v113q0 63 58 63h80q27 0 42 -16.5t15 -46.5v-113q0 -62 -57 -62h-80q-58 0 -58 62z" />
<glyph unicode="&#xcc;" horiz-adv-x="487" d="M-94 1712l121 182l331 -301l-73 -110zM117 0v1413h254v-1413h-254z" />
<glyph unicode="&#xcd;" horiz-adv-x="487" d="M104 1593l332 301l121 -182l-379 -229zM117 0v1413h254v-1413h-254z" />
<glyph unicode="&#xce;" horiz-adv-x="487" d="M-61 1583l217 268h180l217 -270l-74 -100l-227 196h-12l-230 -196zM117 0v1413h254v-1413h-254z" />
<glyph unicode="&#xcf;" horiz-adv-x="487" d="M-4 1624v113q0 63 57 63h80q57 0 57 -63v-113q0 -61 -57 -61h-80q-57 0 -57 61zM117 0v1413h254v-1413h-254zM295 1624v113q0 63 57 63h80q27 0 42 -16.5t15 -46.5v-113q0 -61 -57 -61h-80q-57 0 -57 61z" />
<glyph unicode="&#xd0;" horiz-adv-x="1128" d="M29 678v135h96v600q249 19 442 19q137 0 227 -35t149 -120.5t84.5 -222.5t25.5 -347t-25.5 -347t-84.5 -222.5t-149 -120.5t-227 -35q-210 0 -442 18v678h-96zM379 199q57 -2 188 -2q85 0 131 47.5t66 156t20 306.5t-20 307t-66.5 157t-130.5 48q-38 0 -99.5 -1t-88.5 -1 v-404h201v-135h-201v-479z" />
<glyph unicode="&#xd1;" horiz-adv-x="1200" d="M117 0v1319q0 45 23.5 69.5t66.5 24.5h211q79 0 102 -78l236 -825l65 -236h19q-2 84 -2 244v895h245v-1319q0 -94 -90 -94h-211q-79 0 -102 78l-242 848q-27 94 -61 223h-17q5 -185 5 -225v-924h-248zM315 1556q-18 131 24.5 202.5t111.5 64.5q58 -5 141 -51t125 -52 q39 -7 51 13.5t12 78.5h105q20 -127 -20.5 -198.5t-114.5 -65.5q-48 4 -98 28t-94 49t-75 30q-39 7 -50 -15.5t-11 -83.5h-107z" />
<glyph unicode="&#xd2;" horiz-adv-x="1130" d="M78 707q0 213 25 351.5t84 225t149.5 121.5t228.5 35q184 0 288 -67t152 -225t48 -441q0 -213 -25 -352t-84.5 -225t-150 -121.5t-228.5 -35.5q-111 0 -189.5 23t-137 73.5t-93 137t-51 208t-16.5 292.5zM223 1712l121 182l332 -301l-74 -110zM346 707q0 -200 20 -309.5 t66.5 -157t132.5 -47.5t133 48t66.5 156.5t19.5 309.5t-19.5 309.5t-66.5 156.5t-133 48t-132.5 -47.5t-66.5 -157t-20 -309.5z" />
<glyph unicode="&#xd3;" horiz-adv-x="1130" d="M78 707q0 213 25 351.5t84 225t149.5 121.5t228.5 35q184 0 288 -67t152 -225t48 -441q0 -213 -25 -352t-84.5 -225t-150 -121.5t-228.5 -35.5q-111 0 -189.5 23t-137 73.5t-93 137t-51 208t-16.5 292.5zM346 707q0 -200 20 -309.5t66.5 -157t132.5 -47.5t133 48 t66.5 156.5t19.5 309.5t-19.5 309.5t-66.5 156.5t-133 48t-132.5 -47.5t-66.5 -157t-20 -309.5zM424 1593l332 301l121 -182l-379 -229z" />
<glyph unicode="&#xd4;" horiz-adv-x="1130" d="M78 707q0 213 25 351.5t84 225t149.5 121.5t228.5 35q184 0 288 -67t152 -225t48 -441q0 -213 -25 -352t-84.5 -225t-150 -121.5t-228.5 -35.5q-111 0 -189.5 23t-137 73.5t-93 137t-51 208t-16.5 292.5zM256 1583l217 268h180l217 -270l-73 -100l-228 196h-12l-229 -196 zM346 707q0 -200 20 -309.5t66.5 -157t132.5 -47.5t133 48t66.5 156.5t19.5 309.5t-19.5 309.5t-66.5 156.5t-133 48t-132.5 -47.5t-66.5 -157t-20 -309.5z" />
<glyph unicode="&#xd5;" horiz-adv-x="1130" d="M78 707q0 213 25 351.5t84 225t149.5 121.5t228.5 35q184 0 288 -67t152 -225t48 -441q0 -213 -25 -352t-84.5 -225t-150 -121.5t-228.5 -35.5q-111 0 -189.5 23t-137 73.5t-93 137t-51 208t-16.5 292.5zM274 1556q-18 131 24.5 202.5t111.5 64.5q58 -5 141 -51t125 -52 q39 -7 51 13.5t12 78.5h105q20 -127 -20.5 -198.5t-114.5 -65.5q-48 4 -98 28t-94 49t-75 30q-39 7 -50 -15.5t-11 -83.5h-107zM346 707q0 -200 20 -309.5t66.5 -157t132.5 -47.5t133 48t66.5 156.5t19.5 309.5t-19.5 309.5t-66.5 156.5t-133 48t-132.5 -47.5t-66.5 -157 t-20 -309.5z" />
<glyph unicode="&#xd6;" horiz-adv-x="1130" d="M78 707q0 213 25 351.5t84 225t149.5 121.5t228.5 35q184 0 288 -67t152 -225t48 -441q0 -213 -25 -352t-84.5 -225t-150 -121.5t-228.5 -35.5q-111 0 -189.5 23t-137 73.5t-93 137t-51 208t-16.5 292.5zM315 1624v113q0 63 58 63h80q57 0 57 -63v-113q0 -61 -57 -61h-80 q-58 0 -58 61zM346 707q0 -200 20 -309.5t66.5 -157t132.5 -47.5t133 48t66.5 156.5t19.5 309.5t-19.5 309.5t-66.5 156.5t-133 48t-132.5 -47.5t-66.5 -157t-20 -309.5zM614 1624v113q0 63 58 63h80q27 0 42 -16.5t15 -46.5v-113q0 -61 -57 -61h-80q-58 0 -58 61z" />
<glyph unicode="&#xd7;" horiz-adv-x="811" d="M49 336l236 260l-236 258l117 143l244 -266l241 266l117 -143l-236 -258l236 -260l-117 -143l-241 266l-244 -266z" />
<glyph unicode="&#xd8;" horiz-adv-x="1128" d="M78 707q0 213 25 351.5t84 225t149.5 121.5t228.5 35q115 0 201 -27l49 129l117 -49l-53 -139q93 -73 133.5 -227t40.5 -420q0 -213 -25 -352t-84.5 -225t-150 -121.5t-228.5 -35.5q-115 0 -200 27l-48 -127l-118 51l51 135q-91 74 -131.5 229t-40.5 419zM346 707 q0 -224 25 -332l309 815q-45 31 -115 31q-86 0 -132.5 -47.5t-66.5 -157t-20 -309.5zM451 223q47 -30 114 -30q86 0 133 48t66.5 156.5t19.5 309.5q0 229 -24 333z" />
<glyph unicode="&#xd9;" horiz-adv-x="1122" d="M109 553v860h253v-860q0 -204 43 -282t156 -78q111 0 155 78.5t44 281.5v860h254v-860q0 -317 -99.5 -448.5t-341.5 -131.5q-256 0 -360 131t-104 449zM223 1712l121 182l332 -301l-74 -110z" />
<glyph unicode="&#xda;" horiz-adv-x="1122" d="M109 553v860h253v-860q0 -204 43 -282t156 -78q111 0 155 78.5t44 281.5v860h254v-860q0 -317 -99.5 -448.5t-341.5 -131.5q-256 0 -360 131t-104 449zM424 1593l332 301l121 -182l-379 -229z" />
<glyph unicode="&#xdb;" horiz-adv-x="1122" d="M109 553v860h253v-860q0 -204 43 -282t156 -78q111 0 155 78.5t44 281.5v860h254v-860q0 -317 -99.5 -448.5t-341.5 -131.5q-256 0 -360 131t-104 449zM256 1583l217 268h180l217 -270l-73 -100l-228 196h-12l-229 -196z" />
<glyph unicode="&#xdc;" horiz-adv-x="1122" d="M109 553v860h253v-860q0 -204 43 -282t156 -78q111 0 155 78.5t44 281.5v860h254v-860q0 -317 -99.5 -448.5t-341.5 -131.5q-256 0 -360 131t-104 449zM315 1624v113q0 63 58 63h80q57 0 57 -63v-113q0 -61 -57 -61h-80q-58 0 -58 61zM614 1624v113q0 63 58 63h80 q27 0 42 -16.5t15 -46.5v-113q0 -61 -57 -61h-80q-58 0 -58 61z" />
<glyph unicode="&#xdd;" horiz-adv-x="1003" d="M0 1413h266l187 -549q20 -59 41 -170h16q21 112 43 170l184 549h264l-372 -936v-477h-254v481zM360 1593l332 301l121 -182l-379 -229z" />
<glyph unicode="&#xde;" horiz-adv-x="1007" d="M117 0v1413h256v-242l172 3q120 0 195.5 -21t125 -75t69 -141.5t19.5 -225.5q0 -182 -37 -281t-116 -138.5t-223 -39.5q-110 0 -205 12v-264h-256zM373 463h166q95 0 128 49.5t33 198.5q0 151 -33 201.5t-128 50.5h-166v-500z" />
<glyph unicode="&#xdf;" horiz-adv-x="1169" d="M31 821v183h145v120q0 114 23.5 186t77.5 111t126 53.5t185 14.5q160 0 247 -28.5t122.5 -90.5t35.5 -176q0 -76 -21.5 -134.5t-90.5 -131.5q-11 -11 -38 -37t-34 -34t-20.5 -26.5t-17 -34.5t-3.5 -38q0 -21 5.5 -36.5t22.5 -31.5t29 -25.5t45 -31.5l127 -96 q77 -53 105 -109t28 -162q0 -166 -71 -227.5t-248 -61.5q-115 0 -272 23l16 178q105 -6 199 -6q82 0 108.5 18t26.5 86q0 26 -5 43.5t-23.5 36t-30.5 27.5t-50 35l-123 94q-125 87 -125 238q0 40 8 72.5t26 60.5t32.5 45t44 47t43.5 45q45 49 61.5 82.5t16.5 81.5 q0 25 -1.5 38t-10 29.5t-26 24t-49 13t-79.5 5.5q-106 0 -141 -38.5t-35 -157.5v-1098h-246v821h-145z" />
<glyph unicode="&#xe0;" d="M59 268v103q0 120 67 186t187 66h285v61q-1 85 -30 114t-109 29q-118 0 -336 -20l-23 176q87 20 213.5 34.5t202.5 14.5q170 0 249 -78t79 -272v-682h-195l-22 137q-116 -160 -297 -160q-119 0 -195 77t-76 214zM125 1343l121 183l332 -301l-74 -111zM307 301 q0 -65 21 -94t67 -29q43 0 96.5 26t106.5 77v172h-219q-42 -3 -57 -30.5t-15 -82.5v-39z" />
<glyph unicode="&#xe1;" d="M59 268v103q0 120 67 186t187 66h285v61q-1 85 -30 114t-109 29q-118 0 -336 -20l-23 176q87 20 213.5 34.5t202.5 14.5q170 0 249 -78t79 -272v-682h-195l-22 137q-116 -160 -297 -160q-119 0 -195 77t-76 214zM307 301q0 -65 21 -94t67 -29q43 0 96.5 26t106.5 77v172 h-219q-42 -3 -57 -30.5t-15 -82.5v-39zM324 1225l331 301l121 -183l-379 -229z" />
<glyph unicode="&#xe2;" d="M59 268v103q0 120 67 186t187 66h285v61q-1 85 -30 114t-109 29q-118 0 -336 -20l-23 176q87 20 213.5 34.5t202.5 14.5q170 0 249 -78t79 -272v-682h-195l-22 137q-116 -160 -297 -160q-119 0 -195 77t-76 214zM158 1214l217 269h180l217 -271l-74 -100l-227 197h-12 l-230 -197zM307 301q0 -65 21 -94t67 -29q43 0 96.5 26t106.5 77v172h-219q-42 -3 -57 -30.5t-15 -82.5v-39z" />
<glyph unicode="&#xe3;" d="M59 268v103q0 120 67 186t187 66h285v61q-1 85 -30 114t-109 29q-118 0 -336 -20l-23 176q87 20 213.5 34.5t202.5 14.5q170 0 249 -78t79 -272v-682h-195l-22 137q-116 -160 -297 -160q-119 0 -195 77t-76 214zM176 1188q-18 131 24 202t111 64q58 -5 141.5 -50.5 t125.5 -51.5q39 -7 51 13.5t12 78.5h104q20 -127 -20.5 -198.5t-114.5 -65.5q-48 4 -98 28t-93.5 48.5t-74.5 29.5q-39 7 -50 -15t-11 -83h-107zM307 301q0 -65 21 -94t67 -29q43 0 96.5 26t106.5 77v172h-219q-42 -3 -57 -30.5t-15 -82.5v-39z" />
<glyph unicode="&#xe4;" d="M59 268v103q0 120 67 186t187 66h285v61q-1 85 -30 114t-109 29q-118 0 -336 -20l-23 176q87 20 213.5 34.5t202.5 14.5q170 0 249 -78t79 -272v-682h-195l-22 137q-116 -160 -297 -160q-119 0 -195 77t-76 214zM217 1255v113q0 64 57 64h80q58 0 58 -64v-113 q0 -61 -58 -61h-80q-57 0 -57 61zM307 301q0 -65 21 -94t67 -29q43 0 96.5 26t106.5 77v172h-219q-42 -3 -57 -30.5t-15 -82.5v-39zM516 1255v113q0 64 57 64h80q27 0 42.5 -17t15.5 -47v-113q0 -61 -58 -61h-80q-57 0 -57 61z" />
<glyph unicode="&#xe5;" d="M59 268v103q0 120 67 186t187 66h285v61q-1 85 -30 114t-109 29q-118 0 -336 -20l-23 176q87 20 213.5 34.5t202.5 14.5q170 0 249 -78t79 -272v-682h-195l-22 137q-116 -160 -297 -160q-119 0 -195 77t-76 214zM266 1317q0 96 58.5 162.5t138.5 66.5t138 -66.5 t58 -162.5t-57 -160.5t-139 -64.5t-139.5 64.5t-57.5 160.5zM307 301q0 -65 21 -94t67 -29q43 0 96.5 26t106.5 77v172h-219q-42 -3 -57 -30.5t-15 -82.5v-39zM383 1317q0 -49 23 -79t57 -30q35 0 57.5 29.5t22.5 79.5q0 51 -22.5 82t-57.5 31t-57.5 -31t-22.5 -82z" />
<glyph unicode="&#xe6;" horiz-adv-x="1445" d="M59 268v103q0 119 66.5 185.5t185.5 66.5h283v61q0 85 -28.5 114t-108.5 29q-119 0 -334 -20l-23 176q87 20 213.5 34.5t200.5 14.5q154 0 231 -63q88 63 256 63q203 0 294 -87t89 -261q3 -287 -223 -287h-311q6 -90 27.5 -137.5t59 -63.5t105.5 -16q120 0 299 23 l23 -160q-128 -68 -352 -68q-146 0 -235.5 46.5t-133.5 146.5q-47 -77 -125.5 -134t-189.5 -57q-118 0 -193.5 77t-75.5 214zM307 301q0 -66 20.5 -94.5t67.5 -28.5q44 0 101 30.5t110 90.5q-11 60 -14 154h-215q-40 -3 -55 -30.5t-15 -82.5v-39zM846 571h244q18 0 29.5 10 t16 29.5t6 36t1.5 41.5q2 81 -26.5 114.5t-106.5 33.5q-94 0 -127.5 -53.5t-36.5 -211.5z" />
<glyph unicode="&#xe7;" horiz-adv-x="835" d="M66 504q0 290 92.5 409t316.5 119q184 0 303 -57l-28 -156q-176 4 -232 4q-110 0 -151 -66.5t-41 -252.5q0 -188 41 -256t151 -68q127 0 250 21l20 -164q-127 -62 -315 -62q-224 0 -315.5 118.5t-91.5 410.5zM270 -508l35 121q54 -2 92 32.5t41 92.5q2 28 -17 36.5 t-85 8.5l24 108q136 16 190 -9.5t50 -123.5q-4 -142 -98 -214.5t-232 -51.5z" />
<glyph unicode="&#xe8;" horiz-adv-x="921" d="M66 504q0 198 43.5 314t131.5 165t236 49q205 0 296 -86.5t91 -261.5q0 -287 -237 -287h-299q9 -131 50 -174t140 -43q121 0 303 23l21 -160q-128 -68 -355 -68q-230 0 -325.5 120.5t-95.5 408.5zM131 1343l121 183l332 -301l-74 -111zM324 571h233q21 0 34 10t18.5 29.5 t7 35.5t1.5 42q2 82 -25.5 115t-105.5 33q-93 0 -126.5 -54t-36.5 -211z" />
<glyph unicode="&#xe9;" horiz-adv-x="921" d="M66 504q0 198 43.5 314t131.5 165t236 49q205 0 296 -86.5t91 -261.5q0 -287 -237 -287h-299q9 -131 50 -174t140 -43q121 0 303 23l21 -160q-128 -68 -355 -68q-230 0 -325.5 120.5t-95.5 408.5zM324 571h233q21 0 34 10t18.5 29.5t7 35.5t1.5 42q2 82 -25.5 115 t-105.5 33q-93 0 -126.5 -54t-36.5 -211zM330 1225l332 301l120 -183l-379 -229z" />
<glyph unicode="&#xea;" horiz-adv-x="921" d="M66 504q0 198 43.5 314t131.5 165t236 49q205 0 296 -86.5t91 -261.5q0 -287 -237 -287h-299q9 -131 50 -174t140 -43q121 0 303 23l21 -160q-128 -68 -355 -68q-230 0 -325.5 120.5t-95.5 408.5zM164 1214l217 269h180l217 -271l-73 -100l-228 197h-12l-229 -197z M324 571h233q21 0 34 10t18.5 29.5t7 35.5t1.5 42q2 82 -25.5 115t-105.5 33q-93 0 -126.5 -54t-36.5 -211z" />
<glyph unicode="&#xeb;" horiz-adv-x="921" d="M66 504q0 198 43.5 314t131.5 165t236 49q205 0 296 -86.5t91 -261.5q0 -287 -237 -287h-299q9 -131 50 -174t140 -43q121 0 303 23l21 -160q-128 -68 -355 -68q-230 0 -325.5 120.5t-95.5 408.5zM223 1255v113q0 64 58 64h79q58 0 58 -64v-113q0 -61 -58 -61h-79 q-58 0 -58 61zM324 571h233q21 0 34 10t18.5 29.5t7 35.5t1.5 42q2 82 -25.5 115t-105.5 33q-93 0 -126.5 -54t-36.5 -211zM522 1255v113q0 64 58 64h79q27 0 42.5 -17t15.5 -47v-113q0 -61 -58 -61h-79q-58 0 -58 61z" />
<glyph unicode="&#xec;" horiz-adv-x="464" d="M-106 1343l120 183l332 -301l-74 -111zM109 0v1004h247v-1004h-247z" />
<glyph unicode="&#xed;" horiz-adv-x="464" d="M94 1225l332 301l121 -183l-379 -229zM109 0v1004h247v-1004h-247z" />
<glyph unicode="&#xee;" horiz-adv-x="464" d="M-74 1214l217 269h181l217 -271l-74 -100l-227 197h-13l-229 -197zM109 0v1004h247v-1004h-247z" />
<glyph unicode="&#xef;" horiz-adv-x="464" d="M-14 1255v113q0 64 57 64h80q57 0 57 -64v-113q0 -61 -57 -61h-80q-57 0 -57 61zM109 0v1004h247v-1004h-247zM285 1255v113q0 64 57 64h80q27 0 42 -17t15 -47v-113q0 -61 -57 -61h-80q-57 0 -57 61z" />
<glyph unicode="&#xf0;" horiz-adv-x="964" d="M68 444q0 241 82 359.5t272 118.5q103 0 186 -39q-26 167 -92 254l-119 -113l-82 102l99 95q-83 41 -228 34l25 175q204 12 350 -68l121 117l82 -105l-96 -92q217 -211 217 -698q0 -121 -12.5 -214t-42 -169.5t-77 -125.5t-117.5 -75.5t-163 -26.5q-210 0 -307.5 113 t-97.5 358zM326 449q0 -155 33.5 -216t115.5 -61q40 0 67.5 17t44.5 47t26 84t12.5 115.5t3.5 154.5q0 80 -2 117q-75 16 -154 16q-81 0 -114 -64.5t-33 -209.5z" />
<glyph unicode="&#xf1;" horiz-adv-x="991" d="M100 0v1004h205l17 -148q179 176 346 176q110 0 168.5 -71.5t58.5 -206.5v-754h-246v678q0 85 -13.5 114t-53.5 29q-48 0 -101 -28t-135 -91l2 -702h-248zM221 1188q-18 131 24 202t111 64q58 -5 141.5 -50.5t125.5 -51.5q39 -7 51 13.5t12 78.5h105 q19 -127 -21.5 -198.5t-114.5 -65.5q-48 4 -98 28t-93.5 48.5t-74.5 29.5q-39 7 -50 -15t-11 -83h-107z" />
<glyph unicode="&#xf2;" horiz-adv-x="968" d="M66 502q0 289 95 409.5t322 120.5q229 0 324.5 -120.5t95.5 -409.5t-95.5 -409t-324.5 -120q-227 0 -322 120t-95 409zM145 1343l121 183l332 -301l-74 -111zM326 502q0 -195 32 -262.5t127 -67.5t127.5 68t32.5 262q0 196 -32.5 264t-127.5 68t-127 -68t-32 -264z" />
<glyph unicode="&#xf3;" horiz-adv-x="968" d="M66 502q0 289 95 409.5t322 120.5q229 0 324.5 -120.5t95.5 -409.5t-95.5 -409t-324.5 -120q-227 0 -322 120t-95 409zM326 502q0 -195 32 -262.5t127 -67.5t127.5 68t32.5 262q0 196 -32.5 264t-127.5 68t-127 -68t-32 -264zM344 1225l332 301l121 -183l-379 -229z" />
<glyph unicode="&#xf4;" horiz-adv-x="968" d="M66 502q0 289 95 409.5t322 120.5q229 0 324.5 -120.5t95.5 -409.5t-95.5 -409t-324.5 -120q-227 0 -322 120t-95 409zM178 1214l217 269h180l218 -271l-74 -100l-227 197h-13l-229 -197zM326 502q0 -195 32 -262.5t127 -67.5t127.5 68t32.5 262q0 196 -32.5 264 t-127.5 68t-127 -68t-32 -264z" />
<glyph unicode="&#xf5;" horiz-adv-x="968" d="M66 502q0 289 95 409.5t322 120.5q229 0 324.5 -120.5t95.5 -409.5t-95.5 -409t-324.5 -120q-227 0 -322 120t-95 409zM195 1188q-18 131 24 202t111 64q58 -5 141 -50.5t125 -51.5q39 -7 51 13.5t12 78.5h105q20 -127 -20.5 -198.5t-114.5 -65.5q-48 4 -98 28t-94 48.5 t-75 29.5q-39 7 -50 -15t-11 -83h-106zM326 502q0 -195 32 -262.5t127 -67.5t127.5 68t32.5 262q0 196 -32.5 264t-127.5 68t-127 -68t-32 -264z" />
<glyph unicode="&#xf6;" horiz-adv-x="968" d="M66 502q0 289 95 409.5t322 120.5q229 0 324.5 -120.5t95.5 -409.5t-95.5 -409t-324.5 -120q-227 0 -322 120t-95 409zM236 1255v113q0 64 57 64h80q57 0 57 -64v-113q0 -61 -57 -61h-80q-57 0 -57 61zM326 502q0 -195 32 -262.5t127 -67.5t127.5 68t32.5 262 q0 196 -32.5 264t-127.5 68t-127 -68t-32 -264zM535 1255v113q0 64 57 64h80q27 0 42 -17t15 -47v-113q0 -61 -57 -61h-80q-57 0 -57 61z" />
<glyph unicode="&#xf7;" horiz-adv-x="917" d="M78 512v180h764v-180h-764zM340 188v82q0 51 18.5 70.5t69.5 19.5h59q49 0 67.5 -19.5t18.5 -70.5v-82q0 -51 -18.5 -70.5t-67.5 -19.5h-59q-51 0 -69.5 19.5t-18.5 70.5zM340 930v84q0 51 18.5 70.5t69.5 19.5h59q49 0 67.5 -19.5t18.5 -70.5v-84q0 -51 -18 -69.5 t-68 -18.5h-59q-51 0 -69.5 18.5t-18.5 69.5z" />
<glyph unicode="&#xf8;" horiz-adv-x="968" d="M66 502q0 289 95 409.5t322 120.5q77 0 138 -12l55 145l102 -51l-51 -133q93 -53 134.5 -168.5t41.5 -310.5q0 -289 -95.5 -409t-324.5 -120q-70 0 -137 13l-57 -152l-103 49l54 142q-91 54 -132.5 168.5t-41.5 308.5zM326 502q0 -145 16 -213l205 536q-27 9 -62 9 q-95 0 -127 -68t-32 -264zM422 180q24 -8 63 -8q95 0 127.5 68t32.5 262q0 151 -16 219z" />
<glyph unicode="&#xf9;" horiz-adv-x="974" d="M96 252v752h248v-678q-2 -80 15.5 -111t64.5 -31q40 0 87 25t118 80v715h245v-1004h-196l-19 131q-87 -80 -167 -119t-166 -39q-113 0 -171.5 70.5t-58.5 208.5zM152 1356l120 182l332 -301l-74 -111z" />
<glyph unicode="&#xfa;" horiz-adv-x="974" d="M96 252v752h248v-678q-2 -80 15.5 -111t64.5 -31q40 0 87 25t118 80v715h245v-1004h-196l-19 131q-87 -80 -167 -119t-166 -39q-113 0 -171.5 70.5t-58.5 208.5zM352 1237l332 301l121 -182l-379 -230z" />
<glyph unicode="&#xfb;" horiz-adv-x="974" d="M96 252v752h248v-678q-2 -80 15.5 -111t64.5 -31q40 0 87 25t118 80v715h245v-1004h-196l-19 131q-87 -80 -167 -119t-166 -39q-113 0 -171.5 70.5t-58.5 208.5zM184 1225l217 268h181l217 -270l-74 -101l-227 197h-13l-229 -197z" />
<glyph unicode="&#xfc;" horiz-adv-x="974" d="M96 252v752h248v-678q-2 -80 15.5 -111t64.5 -31q40 0 87 25t118 80v715h245v-1004h-196l-19 131q-87 -80 -167 -119t-166 -39q-113 0 -171.5 70.5t-58.5 208.5zM244 1268v112q0 64 57 64h80q57 0 57 -64v-112q0 -62 -57 -62h-80q-57 0 -57 62zM543 1268v112q0 64 57 64 h80q27 0 42 -17t15 -47v-112q0 -62 -57 -62h-80q-57 0 -57 62z" />
<glyph unicode="&#xfd;" horiz-adv-x="927" d="M12 1004h262l150 -691q17 -74 25 -135h20q3 9 35 135l147 691h262l-284 -1037q-17 -59 -41.5 -112.5t-64 -106t-88 -90t-115.5 -58.5t-144 -16l-20 156q98 35 155 91.5t88 145.5l9 23h-52q-30 0 -52.5 16t-29.5 45zM328 1225l331 301l121 -183l-379 -229z" />
<glyph unicode="&#xfe;" horiz-adv-x="978" d="M100 -399v1833h248v-306q0 -106 -6 -208q111 108 274 108q159 0 228 -128t69 -406q0 -196 -34.5 -311.5t-99.5 -162.5t-171 -47q-150 0 -266 74q6 -89 6 -182v-264h-248zM348 221q98 -55 168 -55q80 0 111.5 69t31.5 259q0 131 -14.5 204t-43 101t-77.5 28 q-84 0 -176 -110v-496z" />
<glyph unicode="&#xff;" horiz-adv-x="927" d="M12 1004h262l150 -691q17 -74 25 -135h20q3 9 35 135l147 691h262l-284 -1037q-17 -59 -41.5 -112.5t-64 -106t-88 -90t-115.5 -58.5t-144 -16l-20 156q98 35 155 91.5t88 145.5l9 23h-52q-30 0 -52.5 16t-29.5 45zM219 1255v113q0 64 57 64h80q58 0 58 -64v-113 q0 -61 -58 -61h-80q-57 0 -57 61zM518 1255v113q0 64 57 64h80q27 0 42.5 -17t15.5 -47v-113q0 -61 -58 -61h-80q-57 0 -57 61z" />
<glyph unicode="&#x152;" horiz-adv-x="1566" d="M78 707q0 283 48 441t151.5 225t285.5 67q90 0 155.5 -14t133.5 -46q56 37 125 37q370 0 520 -16l-10 -197h-410q-50 0 -68 -26t-18 -93v-245h434v-199h-434v-315q0 -67 18 -93t68 -26h410l10 -195q-156 -16 -534 -16q-73 0 -125 43q-62 -36 -125 -51t-150 -15 q-182 0 -285.5 67t-151.5 225.5t-48 441.5zM346 707q0 -201 19.5 -309.5t66 -156.5t131.5 -48q102 0 178 26q-6 30 -6 70v835q0 38 6 72q-94 25 -178 25q-86 0 -132 -47t-65.5 -155.5t-19.5 -311.5z" />
<glyph unicode="&#x153;" horiz-adv-x="1492" d="M66 502q0 289 94.5 409.5t320.5 120.5q191 0 285 -84q91 82 272 82q398 0 398 -323q-1 -171 -63.5 -235t-215.5 -64h-260q6 -96 27.5 -145.5t60 -67t109.5 -17.5q100 0 295 25l24 -160q-131 -68 -352 -68q-191 0 -291 84q-96 -86 -289 -86q-226 0 -320.5 120.5 t-94.5 408.5zM326 502q0 -195 31 -262.5t124 -67.5q90 0 125 56t39 212l-2 68q0 43 2 63q-6 152 -40.5 207.5t-121.5 55.5q-94 0 -125.5 -67.5t-31.5 -264.5zM895 573h227q43 0 58.5 30.5t11.5 107.5q-5 65 -38.5 94t-111.5 29q-82 2 -113 -53t-34 -208z" />
<glyph unicode="&#x178;" horiz-adv-x="1003" d="M0 1413h266l187 -549q20 -59 41 -170h16q21 112 43 170l184 549h264l-372 -936v-477h-254v481zM254 1624v113q0 63 57 63h80q58 0 58 -63v-113q0 -61 -58 -61h-80q-57 0 -57 61zM553 1624v113q0 63 57 63h80q28 0 43 -17t15 -46v-113q0 -61 -58 -61h-80q-57 0 -57 61z " />
<glyph unicode="&#x2c6;" horiz-adv-x="745" d="M68 1202l217 268h180l217 -270l-74 -100l-227 196h-12l-230 -196z" />
<glyph unicode="&#x2dc;" horiz-adv-x="729" d="M80 1182q-18 131 24 202t111 64q58 -5 141 -50.5t125 -51.5q39 -7 51.5 13.5t12.5 78.5h104q20 -127 -20.5 -198.5t-114.5 -65.5q-48 4 -98 28t-93.5 48.5t-74.5 29.5q-39 7 -50.5 -15t-11.5 -83h-106z" />
<glyph unicode="&#x2000;" horiz-adv-x="964" />
<glyph unicode="&#x2001;" horiz-adv-x="1929" />
<glyph unicode="&#x2002;" horiz-adv-x="964" />
<glyph unicode="&#x2003;" horiz-adv-x="1929" />
<glyph unicode="&#x2004;" horiz-adv-x="643" />
<glyph unicode="&#x2005;" horiz-adv-x="482" />
<glyph unicode="&#x2006;" horiz-adv-x="321" />
<glyph unicode="&#x2007;" horiz-adv-x="321" />
<glyph unicode="&#x2008;" horiz-adv-x="241" />
<glyph unicode="&#x2009;" horiz-adv-x="385" />
<glyph unicode="&#x200a;" horiz-adv-x="107" />
<glyph unicode="&#x2010;" horiz-adv-x="686" d="M96 432v176h496v-176h-496z" />
<glyph unicode="&#x2011;" horiz-adv-x="686" d="M96 432v176h496v-176h-496z" />
<glyph unicode="&#x2012;" horiz-adv-x="686" d="M96 432v176h496v-176h-496z" />
<glyph unicode="&#x2013;" horiz-adv-x="929" d="M96 432v176h738v-176h-738z" />
<glyph unicode="&#x2014;" horiz-adv-x="1421" d="M96 432v176h1231v-176h-1231z" />
<glyph unicode="&#x2018;" horiz-adv-x="380" d="M74 1169q3 174 84 318l108 -29q-23 -100 -26 -231q33 0 51 -19.5t18 -52.5v-104q-3 -44 -22.5 -62t-65.5 -18h-61q-49 0 -66.5 17.5t-17.5 62.5z" />
<glyph unicode="&#x2019;" horiz-adv-x="374" d="M68 1288l2 105q3 44 22.5 62t65.5 18h61q47 0 65.5 -18t16.5 -62l2 -119q-3 -174 -84 -318l-106 29q24 117 24 232q-69 0 -69 71z" />
<glyph unicode="&#x201a;" horiz-adv-x="399" d="M84 74v106q3 45 22.5 62.5t65.5 17.5h61q49 0 66.5 -17t17.5 -63l2 -121q-3 -176 -83 -321l-109 29q24 104 27 235q-34 0 -52 19t-18 53z" />
<glyph unicode="&#x201c;" horiz-adv-x="686" d="M78 1169q3 173 84 320l106 -31q-24 -114 -24 -231q33 0 51 -19t18 -53l-2 -104q-3 -44 -22.5 -62t-65.5 -18h-61q-47 0 -65.5 18t-16.5 62zM397 1169q3 173 84 320l109 -31q-24 -102 -27 -231q34 0 52 -19t18 -53l-2 -104q-1 -44 -21 -62t-65 -18h-64q-47 0 -65.5 18 t-16.5 62z" />
<glyph unicode="&#x201d;" horiz-adv-x="679" d="M68 1288l2 105q3 44 22.5 62t65.5 18h61q47 0 65.5 -18t16.5 -62l2 -119q-3 -174 -84 -318l-106 29q24 117 24 232q-69 0 -69 71zM375 1288v105q3 44 22.5 62t65.5 18h61q49 0 66.5 -17.5t17.5 -62.5l2 -119q-3 -174 -84 -318l-108 29q23 100 26 232q-69 0 -69 71z" />
<glyph unicode="&#x201e;" horiz-adv-x="704" d="M82 70l2 102q1 45 21.5 63.5t66.5 18.5h61q47 0 65 -18t17 -64l2 -119q-3 -170 -84 -317l-106 31q25 119 25 231q-34 0 -52 19t-18 53zM387 70l2 102q3 46 22.5 64t65.5 18h62q49 0 66.5 -18t15.5 -64l2 -119q-3 -170 -84 -317l-107 31q25 119 25 231q-34 0 -52 19 t-18 53z" />
<glyph unicode="&#x2022;" horiz-adv-x="618" d="M123 539v28q0 108 39 150.5t141 42.5h25q95 0 132.5 -43t37.5 -150v-28q0 -115 -37 -159t-133 -44h-25q-103 0 -141.5 43.5t-38.5 159.5z" />
<glyph unicode="&#x2026;" horiz-adv-x="1503" d="M84 88v105q0 50 18.5 69t69.5 19h70q50 0 69 -19.5t19 -68.5v-105q0 -50 -19 -69t-69 -19h-70q-51 0 -69.5 19t-18.5 69zM631 88v105q0 50 18.5 69t67.5 19h71q48 0 67 -19.5t19 -68.5v-105q0 -49 -19 -68.5t-67 -19.5h-71q-49 0 -67.5 19t-18.5 69zM1176 88v105 q0 50 18.5 69t67.5 19h71q49 0 67.5 -19t18.5 -69v-105q0 -50 -18.5 -69t-67.5 -19h-71q-49 0 -67.5 19t-18.5 69z" />
<glyph unicode="&#x202f;" horiz-adv-x="385" />
<glyph unicode="&#x2039;" horiz-adv-x="538" d="M68 487v54l264 405l129 -84l-174 -348l174 -356l-129 -84z" />
<glyph unicode="&#x203a;" horiz-adv-x="542" d="M78 158l174 356l-172 348l129 84l264 -405v-54l-264 -413z" />
<glyph unicode="&#x205f;" horiz-adv-x="482" />
<glyph unicode="&#x20ac;" horiz-adv-x="1095" d="M72 510v145h129v52q0 48 2 73h-129v148h137q30 263 149 386.5t355 123.5q158 0 278 -45l-22 -195q-45 9 -128 14t-147 0q-94 -9 -145 -76.5t-70 -207.5h377l-14 -148h-373l-2 -73v-52h338l-14 -145h-316q15 -156 66.5 -229.5t152.5 -79.5q174 -8 301 20l23 -192 q-136 -54 -305 -54q-242 0 -360.5 129.5t-145.5 405.5h-137z" />
<glyph unicode="&#x2122;" horiz-adv-x="1630" d="M92 1284v141h565v-141h-196v-637h-170v637h-199zM719 647l24 713q3 65 60 65h160q51 0 67 -55l70 -393q5 -20 9.5 -59.5t6.5 -51.5h12q4 18 9.5 56t9.5 57l70 391q12 55 65 55h164q60 0 63 -65l21 -713h-156l-24 647h-15l-90 -487q-15 -55 -67 -55h-109q-52 0 -68 55 l-90 487h-16l-21 -647h-155z" />
<glyph unicode="&#x25fc;" horiz-adv-x="1003" d="M0 0v1004h1004v-1004h-1004z" />
<glyph unicode="&#xfb03;" horiz-adv-x="1681" d="M33 823v170l129 8v148q2 144 68 223.5t198 79.5q147 0 225 -18l-22 -177h-117q-61 0 -83.5 -28t-22.5 -113v-112h346v139q0 162 62.5 246t205.5 84q124 0 209 -19v-176h-121q-63 0 -87 -36.5t-24 -129.5v-108h576v-1004h-246v823h-330v-823h-245v823h-346v-823h-246v823 h-129zM1325 1260v110q0 72 70 72h110q72 0 72 -72v-110q0 -72 -72 -72h-110q-70 0 -70 72z" />
<glyph unicode="&#xfb04;" horiz-adv-x="1794" d="M33 823v170l145 11v145q2 144 68 223.5t198 79.5q146 0 224 -18l-23 -177h-117q-61 0 -83.5 -28t-22.5 -113v-112h346v139q0 162 62 246t204 84q404 0 574 -33v-1153q0 -115 84 -115h63l29 -160q-28 -16 -88.5 -25.5t-104.5 -9.5q-107 0 -168 66.5t-61 183.5v1053h-242 q-59 2 -82.5 -35.5t-23.5 -132.5v-108h205v-181h-205v-823h-246v823h-346v-823h-244v823h-145z" />
</font>
</defs>
</svg>
